<svg xmlns="http://www.w3.org/2000/svg" viewBox="0 0 703.67 97.68"><defs><style>.cls-1{fill:#804e0e;}</style></defs><g id="Layer_2" data-name="Layer 2"><g id="Layer_1-2" data-name="Layer 1"><path class="cls-1" d="M53.64,53.76a3.64,3.64,0,0,1,1.08-.12A2.66,2.66,0,0,1,57.12,55,6.47,6.47,0,0,1,58,58.44a9,9,0,0,1-.54,3.06A6.56,6.56,0,0,1,55.92,64a4.54,4.54,0,0,1-3.36,1.2,8.65,8.65,0,0,1-4.08-1.08v.12A8,8,0,0,1,50.16,69a4.79,4.79,0,0,1-1.8,4A4.85,4.85,0,0,1,45,74a9.41,9.41,0,0,1-6.36-2.4.2.2,0,0,0-.24-.06.19.19,0,0,0-.12.18A6.93,6.93,0,0,1,39,74.64a4.71,4.71,0,0,1-2.52,4.26,11.28,11.28,0,0,1-5.88,1.5,11.48,11.48,0,0,1-6.06-1.56A4.82,4.82,0,0,1,22,74.52a6.16,6.16,0,0,1,.36-1.92,9,9,0,0,0,.36-1.68q0-.24-.12-.24a12.17,12.17,0,0,0-1.68,1.2,6,6,0,0,1-3.24,1.32q-3,.48-3-2a8.65,8.65,0,0,1,.3-2q.3-1.2.18-1.2l-1.08,1a7.18,7.18,0,0,1-4.68,1.56,10.32,10.32,0,0,1-5.64-1.68A7.07,7.07,0,0,1,1,65.94,8.47,8.47,0,0,1,0,61.8a9.71,9.71,0,0,1,1.2-4.56,6.93,6.93,0,0,1,6.36-3.72,8,8,0,0,1,5.34,2,6,6,0,0,1,2.34,4.74,13.13,13.13,0,0,1-.48,2.88,3.19,3.19,0,0,0-.24,2.64q.24.6,1,.36a21.28,21.28,0,0,0,2.7-1.2,12.45,12.45,0,0,1,4.2-1.56q1.8,0,1.44,2.76-.24,1.8,1.8,2.76a11.8,11.8,0,0,0,5,1,13.92,13.92,0,0,0,4.86-.78,3.82,3.82,0,0,0,2.58-2.34,6.8,6.8,0,0,0,.36-2.16A8.41,8.41,0,0,0,38,61.92a11.49,11.49,0,0,0,5.16,1.32,8.24,8.24,0,0,0,4.32-1.08A6.47,6.47,0,0,0,50,59.7a6,6,0,0,0,1-3.06,1.56,1.56,0,0,0-.48-1.32Q50,55,49.2,55.44a13.75,13.75,0,0,1-2.52.9,12,12,0,0,1-3.12.42q-3.24,0-4.32-2a4.5,4.5,0,0,1-.48-2,6,6,0,0,1,.84-2.76q.84-1.56.6-2t-.72-.6q-.72,0-3,2a25.42,25.42,0,0,1-3.06,2.52,4.78,4.78,0,0,1-2.7.84,3.6,3.6,0,0,1-1.92-.6,3.45,3.45,0,0,1-1.56-3,3.71,3.71,0,0,1,.36-1.68,1.25,1.25,0,0,0-.42-1.68A3.44,3.44,0,0,0,25,45a3,3,0,0,0-1.68.48,1.62,1.62,0,0,0-.72,1.44,4.61,4.61,0,0,0,.6,1.8,5.76,5.76,0,0,1,.36,1.68,2.06,2.06,0,0,1-.12.84q-.72,1.44-4.08,1.44a7.66,7.66,0,0,1-3.78-.9A3.09,3.09,0,0,1,13.8,49.2,3.84,3.84,0,0,1,14.88,47,3.92,3.92,0,0,0,16,45.12q0-.36-.48-.36a5,5,0,0,0-.84.24,13.14,13.14,0,0,1-4.92,1,7.51,7.51,0,0,1-5.88-2.4,8.16,8.16,0,0,1-2.16-5.64A7,7,0,0,1,2.82,34a6.11,6.11,0,0,1,3.3-2.46A12.68,12.68,0,0,1,9.6,31a11.12,11.12,0,0,1,2.16.24h.12a9.11,9.11,0,0,1-1.44-4.32,4.13,4.13,0,0,1,1.32-3,5.11,5.11,0,0,1,3.36-1.32q3.48,0,6.48,3.72l.24-.12a5.92,5.92,0,0,1-.72-2.88,4.9,4.9,0,0,1,.24-1.56A5.44,5.44,0,0,1,24.6,18.6a14.78,14.78,0,0,1,5.52-1,16,16,0,0,1,4.68.66,5.89,5.89,0,0,1,3,1.74,5.26,5.26,0,0,1,.84,2.88,6.51,6.51,0,0,1-1,3.48l.24.12a9.47,9.47,0,0,1,2.64-2.4,5.45,5.45,0,0,1,2.76-1,1.27,1.27,0,0,1,1.44,1.44A7.23,7.23,0,0,1,44,27.12v.12q.12.36,1.2-.72a6.09,6.09,0,0,1,4.68-1.8,5.37,5.37,0,0,1,3,.72,3.57,3.57,0,0,1,1.86,1.74A6,6,0,0,1,55.44,30a9.44,9.44,0,0,1-2.52,6.36,5.93,5.93,0,0,1-4.8,2.16,7,7,0,0,1-4.26-1.38A4.13,4.13,0,0,1,42,33.72a8.89,8.89,0,0,1,.42-2.58,9.79,9.79,0,0,1,1-2.34v-.12l-.24-.12a6.87,6.87,0,0,1-2.34,2.22,5.47,5.47,0,0,1-2.7.78,2.16,2.16,0,0,1-1.68-.66,1.65,1.65,0,0,1-.24-1.74q.48-1.56-1.8-2.46a14.32,14.32,0,0,0-5.28-.9q-4.44,0-5.64,1.68a3.87,3.87,0,0,0-.72,2.16,4.41,4.41,0,0,0,.36,1.86,4.5,4.5,0,0,1,.36.9A12.69,12.69,0,0,0,18.12,31q-3.36,0-3.36,3.6a5.05,5.05,0,0,0,2,4A14.21,14.21,0,0,0,22,41.16a29.62,29.62,0,0,0,8.4,1.2q1.68,0,3.66-.18T37.08,42q1.8,0,2.28.72a2.94,2.94,0,0,1,.48,1.38,5.42,5.42,0,0,0,.3,1.32.58.58,0,0,0,.54.42,6,6,0,0,0,2.4-1.32A12.74,12.74,0,0,1,50.16,42a5,5,0,0,1,3.24,1,3.33,3.33,0,0,1,1.2,2.76q0,3.24-3.6,7.8-.48.6.48.6A7.6,7.6,0,0,0,53.64,53.76Z"/><path class="cls-1" d="M72.12,20.16a15.33,15.33,0,0,1,8-2.16q4.56,0,5.76,2.28a7.48,7.48,0,0,1,.84,3.6A5,5,0,0,1,86.4,26a15.63,15.63,0,0,1,1.92,7.68,13,13,0,0,1-.72,4.56,4.72,4.72,0,0,1-2,2.64,3.8,3.8,0,0,1-1.92.48,8.07,8.07,0,0,1-2.88-.6l-.24.12a4.9,4.9,0,0,1,3.6,4.92,10.45,10.45,0,0,1-.6,3.42,45,45,0,0,1-1.92,4.5,21.76,21.76,0,0,0-1.26,2.88q-.3,1,.06,1.32a1.94,1.94,0,0,0,1.2.36,10.18,10.18,0,0,0,2.52-.48l1.08-.24a7.45,7.45,0,0,1,1.44-.12,2.75,2.75,0,0,1,1.44.36,3.18,3.18,0,0,1,.84,2.52,9.88,9.88,0,0,1-1.32,5,13.6,13.6,0,0,0,9.24,3.12,12.33,12.33,0,0,0,5.52-1.08l1.2-.72h.12a20.12,20.12,0,0,0,2.4-2,10.14,10.14,0,0,0,2.52-4.14q1-2.7.6-3.42a3.64,3.64,0,0,1-1.08.12,4.63,4.63,0,0,1-2.28-.6,9.7,9.7,0,0,1-4.08-4.38,13.26,13.26,0,0,1-1.56-6.06,6.18,6.18,0,0,1,1.56-4.56,4.38,4.38,0,0,1,3.24-1.2l2.4.12a3,3,0,0,0,2.4-1,22,22,0,0,0,2.46-5.4,22.09,22.09,0,0,0,1.38-7.2,9,9,0,0,0-.24-2.52l-.12-.12a11.82,11.82,0,0,1-3.18,6.24,7,7,0,0,1-4.86,2,6.76,6.76,0,0,1-4.5-1.68,5.28,5.28,0,0,1-2-4.2q0-3.36,3.72-6.36A11.52,11.52,0,0,1,110,18.12a13.76,13.76,0,0,1,5.16,1,9.59,9.59,0,0,1,4,2.88,5.53,5.53,0,0,1,1.44,3.36,2.36,2.36,0,0,1-1.2,2.16,2.58,2.58,0,0,1-1.68.36,5.77,5.77,0,0,1-2.4-.36V28a19.66,19.66,0,0,1,4.26,3.48,5.57,5.57,0,0,1,1.74,3.6,3.08,3.08,0,0,1-1.08,2.4,8.93,8.93,0,0,1-3.72,1.74,17.18,17.18,0,0,1-3.84.54,1,1,0,0,0-.6.36v.12a.64.64,0,0,0,0,.54q.12.3.36.3Q117,42.12,117,46a10.2,10.2,0,0,1-.9,4,34.87,34.87,0,0,1-2.16,4.2q-1.26,2.1-1.74,3.06a1.44,1.44,0,0,0,.66,1.74,8.06,8.06,0,0,0,2.82,1.26q-2.88,1.44-2.88,2.88a4.15,4.15,0,0,0,1.44,2.58,46.44,46.44,0,0,0,4.68,4,4.66,4.66,0,0,1,1.92,3.72,5.77,5.77,0,0,1-2,4.2,6.17,6.17,0,0,1-4.38,1.92,5.21,5.21,0,0,1-3.42-1.38,10.17,10.17,0,0,1-2.7-4.26q-1.56-4.56-4.08-4.56a2.78,2.78,0,0,0-2,.84,3.42,3.42,0,0,0-.6.72,2.83,2.83,0,0,0-.36,1.2,4.78,4.78,0,0,0,.3,1.38,4.94,4.94,0,0,1,.3,1.5,2,2,0,0,1-.24,1.08,6.05,6.05,0,0,1-3.3,2.7,14.45,14.45,0,0,1-5.58,1,17.33,17.33,0,0,1-5.94-1,9,9,0,0,1-4.26-2.94,4.63,4.63,0,0,1-1-2.76,6.89,6.89,0,0,1,1.8-4.44q0-.12-.24-.24-4.32,3-7.2,3a5.85,5.85,0,0,1-2.4-.48A2.82,2.82,0,0,1,71.88,68a10.37,10.37,0,0,1,1.68-5,22.63,22.63,0,0,1,4.68-5.52,1.25,1.25,0,0,0,0-.78,3.67,3.67,0,0,0-.24-.78,8.23,8.23,0,0,1-1.56.12,8.13,8.13,0,0,1-2.52-.48,9.46,9.46,0,0,1-4.14-4A11.37,11.37,0,0,1,68,45.72a5.18,5.18,0,0,1,5.52-5.64,12.58,12.58,0,0,1,2.16.24,12.58,12.58,0,0,0,2.16.24,2.13,2.13,0,0,0,1-.24q1.44-.84,2.94-5.1a24.1,24.1,0,0,0,1.5-8,9.62,9.62,0,0,0-.36-2.76H82.8a14.08,14.08,0,0,0-1.14,2.28,13.66,13.66,0,0,1-2.46,3.66,6.14,6.14,0,0,1-4.8,1.86A6.25,6.25,0,0,1,70,30.36a5.85,5.85,0,0,1-1.74-4.2,6.4,6.4,0,0,1,1-3.3A7.54,7.54,0,0,1,72.12,20.16Z"/><path class="cls-1" d="M196.68,45a6.46,6.46,0,0,1,1.08,3.24,2.51,2.51,0,0,1-.9,2A4.24,4.24,0,0,1,194,51a19.74,19.74,0,0,1-2.28-.24h-.24a1.36,1.36,0,0,0-.9.36,1,1,0,0,0,.3,1.8,6.28,6.28,0,0,1,4.32,6.36,12,12,0,0,1-2.7,7.38q-2.7,3.54-5.82,3.54a5.31,5.31,0,0,1-3.24-1.32q-.48-.36-.6-.24t.12.6a5.35,5.35,0,0,1,.72,1.92,3.49,3.49,0,0,1-.84,3.42A4.45,4.45,0,0,1,179.52,76q-3.84,0-6.48-4.2-.36-.6-.84-.42t-.24.78a6.76,6.76,0,0,0,.78,1.56,10.68,10.68,0,0,1,1,1.92,3,3,0,0,1,.06,1.8q-.24,1.08-2,1.68a12.46,12.46,0,0,1-4,.6,10.45,10.45,0,0,1-4-.72,3.23,3.23,0,0,1-2.1-2,2.64,2.64,0,0,1,.06-1.68,8.49,8.49,0,0,1,.78-1.44,7.36,7.36,0,0,0,.72-1.32q.24-.6-.18-.72a.63.63,0,0,0-.66.12,8.08,8.08,0,0,1-6.72,3.24,8.38,8.38,0,0,1-5-1.56A6.83,6.83,0,0,1,148.5,71a7.16,7.16,0,0,1-.78-3.24,5.52,5.52,0,0,1,2.76-5q.12,0,0-.06a2.2,2.2,0,0,0-.54-.12,9.7,9.7,0,0,0-1.26-.06h-8.16q-.12,0-.12.06s0,.06.12.06a7.73,7.73,0,0,1,2.88,1.14,2,2,0,0,1,.84,1.62,12.21,12.21,0,0,1-.78,2.82,12.84,12.84,0,0,0-.78,4.26q0,5.4,5.4,11.88a6.84,6.84,0,0,1,1.56,4.44,8.82,8.82,0,0,1-2.4,6.12,8,8,0,0,1-6.12,2.76,8.11,8.11,0,0,1-6.24-2.76,8.54,8.54,0,0,1-2.4-5.88A7.5,7.5,0,0,1,134,84.36Q139,77.52,139,71.64a11.77,11.77,0,0,0-1.5-6.48,23.87,23.87,0,0,1-1.62-2.64,3.81,3.81,0,0,0,1.08.24,2.23,2.23,0,0,0,1.44-.48q1.56-.84,1.56-4.56a15.32,15.32,0,0,0-.84-5q-.84-2.46-2.16-3.06a2.25,2.25,0,0,0-1.2-.24,4.45,4.45,0,0,0-2.4.6q1.56-5.28,3.12-9.24,1.8-4.8,1.8-6.36a2,2,0,0,0-1.44-2.16,2.5,2.5,0,0,0-1-.12h-.36a2,2,0,0,1-1.44-.6,7.33,7.33,0,0,1-2.16-5.4,8,8,0,0,1,2.4-5.88,8.29,8.29,0,0,1,6.12-2.4,8.77,8.77,0,0,1,6.48,2.52,7.3,7.3,0,0,1,2,5.4,9.29,9.29,0,0,1-1.14,4.5,7.46,7.46,0,0,1-3.3,3.18q-.72.48-.18.66a7.24,7.24,0,0,0,2,.18,22.29,22.29,0,0,0,4.38-.42q2.1-.42,1.62-1A4.82,4.82,0,0,1,151,29.52a3.49,3.49,0,0,1,3.6-3.6,5.9,5.9,0,0,1,4.08,1.8q.6.6,1.08.48t.24-.72a20.1,20.1,0,0,0-1.08-1.74,4.6,4.6,0,0,1-.84-2.58,4.26,4.26,0,0,1,.48-1.92,5.17,5.17,0,0,1,3.36-2.58,17.75,17.75,0,0,1,5.76-.9,15.75,15.75,0,0,1,5.34.84A4.86,4.86,0,0,1,176,21.12a3.44,3.44,0,0,1,.36,1.56,6.24,6.24,0,0,1-1.26,3.42Q173.88,28,174,28.2q.72.72,2.1-.78a13.63,13.63,0,0,1,3.42-2.64q2-1.14,6.12-.78a6.27,6.27,0,0,1,4,1.92A5.66,5.66,0,0,1,191.28,30a7.74,7.74,0,0,1-2.4,5.4q-.84,1,.3,2.28a41.52,41.52,0,0,0,4.5,4.08A11.42,11.42,0,0,1,196.68,45Zm-10.56-8a3.17,3.17,0,0,0-.78.36q-.66.36-2.1,1a10.57,10.57,0,0,1-3.72.72,6.47,6.47,0,0,1-4.38-1.5A4.54,4.54,0,0,1,173.4,34a6.62,6.62,0,0,1,.24-1.32,2.5,2.5,0,0,0-1.26-3.18,10.08,10.08,0,0,0-4.86-1,16,16,0,0,0-5,.72q-2.16.72-1.68,1.8A11.92,11.92,0,0,1,162,35.4,2.52,2.52,0,0,1,160.08,38a6.56,6.56,0,0,1-1.44.24,13.1,13.1,0,0,1-2.76-.48,13.27,13.27,0,0,0-3-.48,3.83,3.83,0,0,0-2.64,1,1.83,1.83,0,0,0-.6,1.32q0,1.68,2.52,3.84a4.18,4.18,0,0,0-1-.24,12.43,12.43,0,0,0-1.86-.12q-4.08,0-4.08,2.88a2.25,2.25,0,0,0,1.44,2.28,12.85,12.85,0,0,0,3,.84,18.89,18.89,0,0,0,1.92.24,11.77,11.77,0,0,0-3.24,2.94,5.68,5.68,0,0,0-1.44,3.3,2,2,0,0,0,.6,1.44A4.47,4.47,0,0,0,151,58.2a13.25,13.25,0,0,0,4.2-.72,4.88,4.88,0,0,1-.6,1.26,2.63,2.63,0,0,0-.48,1.26q0,1.68,4.44,1.2a4.4,4.4,0,0,1,3.36,1.08,6.08,6.08,0,0,1,1.8,2.94,6.92,6.92,0,0,1,.24,3.06,2,2,0,0,0,.72,2.28,4.36,4.36,0,0,0,2.76.84,4.44,4.44,0,0,0,2.52-.72A2.21,2.21,0,0,0,171,68.76a9.2,9.2,0,0,0-.12-1.38,9.87,9.87,0,0,1-.12-1.5,3,3,0,0,1,.9-2.22,3.17,3.17,0,0,1,2.34-.9q3.72,0,7.68,4.8l.36.36q.24.24.36.06t-.12-.42Q179.4,64,179.4,61a6.65,6.65,0,0,1,2.7-5.4,13.33,13.33,0,0,1,5.46-2.76,2.37,2.37,0,0,0,1.2-.54,1.13,1.13,0,0,0,.48-.78q0-.84-1.2-1.32-6.36-3-6.36-6.6,0-2.64,3.6-5.64a4.64,4.64,0,0,0,.84-.6q.24-.24.12-.36Z"/><path class="cls-1" d="M265.08,56.64a11.76,11.76,0,0,1,1.8,6.36q0,3.84-2.16,4.92a8.3,8.3,0,0,1-3.72,1,11,11,0,0,1-2.46-.36,11,11,0,0,0-2-.36,2.25,2.25,0,0,0-2.34,1.74,8.82,8.82,0,0,0-.42,3.3,10.37,10.37,0,0,1-1.68-1A13.69,13.69,0,0,0,250,70.92a4.24,4.24,0,0,0-1.68-.36,1.69,1.69,0,0,0-1.74,1,2.05,2.05,0,0,0-.06,1.74,5.82,5.82,0,0,1,.54,1,4,4,0,0,1,.42,1.8,3.19,3.19,0,0,1-1.32,2.52Q244.32,80,239.76,80a14.21,14.21,0,0,1-5.52-1q-2.28-1-2.28-2.88a4.87,4.87,0,0,1,1.2-2.88,4.77,4.77,0,0,0,1.2-2.76q0-1.8-2.28-1.8a7.6,7.6,0,0,0-4.2,1.56,10.48,10.48,0,0,1-6.12,1.92,9.63,9.63,0,0,1-3.6-.72,4.63,4.63,0,0,1-3-4.56,14.08,14.08,0,0,1,2.28-7.08l-.24-.24a8.21,8.21,0,0,1-3.24.72,5.47,5.47,0,0,1-2.64-.72,6.73,6.73,0,0,1-3.06-3.6,15.45,15.45,0,0,1,0-11,6.31,6.31,0,0,1,2.94-3.48,8.3,8.3,0,0,1,3.72-1,4.2,4.2,0,0,1,1.32.24l.12-.12a7.63,7.63,0,0,1-1.68-4.8,4.26,4.26,0,0,1,1.56-3.6,3.63,3.63,0,0,1,2.16-.6,5.48,5.48,0,0,1,1.62.24,8.23,8.23,0,0,1,1,.36l.24-.12q-2.52-2.88-2.52-4.68a1.63,1.63,0,0,1,.48-1.2A4.57,4.57,0,0,1,223,25a17.62,17.62,0,0,1,7.2,1.8h.12a9.58,9.58,0,0,1-.36-2.52,4.32,4.32,0,0,1,.48-2.16,6.31,6.31,0,0,1,3.42-2.94,14.13,14.13,0,0,1,5.46-1,11.72,11.72,0,0,1,6.18,1.56A4.82,4.82,0,0,1,248,24a11.38,11.38,0,0,1-.36,2.76h.24a11.17,11.17,0,0,1,5.76-2q2.64,0,3.24,2.88a3.48,3.48,0,0,0,.36,1.14.7.7,0,0,0,.6.42h.36a5.7,5.7,0,0,1,1.32-.12,5.45,5.45,0,0,1,4.2,2,6.72,6.72,0,0,1,1.8,4.56,5.08,5.08,0,0,1-3.12,4.8,4.66,4.66,0,0,1-2,.36,8.93,8.93,0,0,1-3.24-.48,6.1,6.1,0,0,1,1.92,4.44,5.48,5.48,0,0,1-1.92,4.32,5.71,5.71,0,0,1-3.24,1,9.51,9.51,0,0,1-4.08-1l-.12.12a6.42,6.42,0,0,1,.48,2.4,2.62,2.62,0,0,1-.48,1.68,5,5,0,0,1-2.58,2.1,10.29,10.29,0,0,1-4,.78,9.08,9.08,0,0,1-5.1-1.38,4.62,4.62,0,0,1-2.1-4.14,11,11,0,0,1,.6-3.48L236.4,47A12.33,12.33,0,0,1,232,46.5a6.88,6.88,0,0,1-5-6.3,4.83,4.83,0,0,1,1.86-3.84,6.44,6.44,0,0,1,4.26-1.56A5.23,5.23,0,0,1,237.48,37a3.87,3.87,0,0,1,.72,2.16,7.05,7.05,0,0,1-.48,2.1,7.05,7.05,0,0,0-.48,2.1,3.57,3.57,0,0,0,.48,1.8,3.69,3.69,0,0,0,2,1.62,8.33,8.33,0,0,0,3.06.54,7.92,7.92,0,0,0,3.36-.72,4.77,4.77,0,0,0,2.28-2,2.25,2.25,0,0,0,.24-1.2,9.24,9.24,0,0,0-.42-2.22,9.57,9.57,0,0,1-.42-2q0-1.08,1.56-1.08a8.72,8.72,0,0,1,2.52.36,4.7,4.7,0,0,0,1.56-3.6,4.21,4.21,0,0,0-1.56-3.36,4,4,0,0,0-2.52-1,6.46,6.46,0,0,0-2,.36,27.79,27.79,0,0,1-6,.72,23.28,23.28,0,0,1-4.56-.48,32.85,32.85,0,0,0-5.88-.72q-2.64,0-3.24,1.08a13.51,13.51,0,0,0-.66,2,6.24,6.24,0,0,1-2.1,2.94,4.77,4.77,0,0,1-3.12,1.08,5,5,0,0,1-4.2-2.28q-.48-.48-.6-.3t.18,1a12.88,12.88,0,0,0,1.14,2.1,37.29,37.29,0,0,0,2.64,3.6,34.65,34.65,0,0,1,2.7,3.6,5.23,5.23,0,0,1,.9,2.76,3.19,3.19,0,0,1-.72,1.92,5.87,5.87,0,0,1-2.1,1.62q-1.5.78-3.06,1.5a33,33,0,0,0-4.08,2.22q-1.32.9-.84,2a1.93,1.93,0,0,0,1.92,1,19.64,19.64,0,0,0,4.8-1.2q.72-.24,2.94-.84a15.21,15.21,0,0,1,3.9-.6,5.37,5.37,0,0,1,2.64.6,4,4,0,0,1,2.28,3.84q0,2.88-2.52,7,0,.24.12.24H230a7.7,7.7,0,0,1,2.82-2.94,6.33,6.33,0,0,1,3.06-.9q1.2,0,1.14.3a5.29,5.29,0,0,1-.78,1.32,5.78,5.78,0,0,0-1,2.22q-.24,1.2,1.32,1.92a9.14,9.14,0,0,0,3.84.72,8,8,0,0,0,3.36-.66,2.05,2.05,0,0,0,1.44-1.86,3.58,3.58,0,0,0-.18-1.14,3.58,3.58,0,0,1-.18-1.14,2,2,0,0,1,1-1.8,3.89,3.89,0,0,1,2.4-.72,10.37,10.37,0,0,1,6.48,2.76l.36-.36a11.08,11.08,0,0,1-1.56-5.16,3.12,3.12,0,0,1,.12-1,7.34,7.34,0,0,1,2.1-4.08,5,5,0,0,1,3.42-1.32,6.72,6.72,0,0,1,3.3.9A6.93,6.93,0,0,1,265.08,56.64Z"/><path class="cls-1" d="M307.56,41.4a7.38,7.38,0,0,1-1.2-4.56,23.43,23.43,0,0,1,.12-2.88v-.24a5.21,5.21,0,0,0-2.94-2.1,13.75,13.75,0,0,0-5-.9q-5.4,0-7.8,3.6a9.2,9.2,0,0,0-1.56,5.52,14.27,14.27,0,0,0,.12,2.16.24.24,0,0,0,.06.18s.06,0,.06-.06a3.64,3.64,0,0,1,1.08-.12,3.34,3.34,0,0,1,1.44.24,11.17,11.17,0,0,1,4.92,4.08A10.08,10.08,0,0,1,299,52.2,5,5,0,0,1,297.36,56a7.45,7.45,0,0,1-5.28,2.16,7.09,7.09,0,0,1-2.22-.3,7.08,7.08,0,0,0-1-.3V58a8.62,8.62,0,0,1,4.32,3.72,10.93,10.93,0,0,1,1.44,5.52,12.42,12.42,0,0,1-1.2,5.16,4.26,4.26,0,0,0-.48,1.92,1.93,1.93,0,0,0,.3,1.14.92.92,0,0,0,.78.42,1.78,1.78,0,0,0,1.26-.78A6.87,6.87,0,0,0,296.4,73,11.69,11.69,0,0,1,299.64,67a8,8,0,0,1,5.64-2.1,12.19,12.19,0,0,1,1.92.12,5.56,5.56,0,0,1,3.54,1.86A5.33,5.33,0,0,1,312,70.44a7.74,7.74,0,0,1-3.12,6,10.53,10.53,0,0,1-4.5,2.22,25,25,0,0,1-6.42.78,28.65,28.65,0,0,1-8.64-1.32,18.52,18.52,0,0,1-7.08-4,5.32,5.32,0,0,1-2.16-3.84q0-1.68,2.4-1.68a2.39,2.39,0,0,1,1.56.6,5.94,5.94,0,0,1,1.38,1.92q.66,1.32.9,1.68,1.2,1.92,2.4,1.92t2.4-2.4a4.26,4.26,0,0,0,.48-1.92q0-2.16-3.12-3.12Q278.64,65,278.64,61a3.64,3.64,0,0,1,.12-1.08A3,3,0,0,1,281,57.72a23.07,23.07,0,0,1,5.16-.24h.24a.69.69,0,0,0-.12-.48q-4.08-2.16-4.08-5.52,0-2.64,2.76-6.72a5,5,0,0,0,1.32-2.52q0-1.44-3.24-1.92,2.64-2,2.64-2.88,0-.48-1.44-.36a9.8,9.8,0,0,1-6.54-1.38A5.43,5.43,0,0,1,275.16,31a9.31,9.31,0,0,1,2.16-5.52,6.52,6.52,0,0,1,2.28-1.8,6.63,6.63,0,0,1,3-.72q4.32,0,7.2,4.56.24.48.6,1.26t.84.78a2.83,2.83,0,0,0,1.2-.36,1.16,1.16,0,0,0,.84-1.08,5,5,0,0,0-1.08-2.28,7.79,7.79,0,0,1-1-1.8,2.18,2.18,0,0,1-.12-1.56,6.18,6.18,0,0,1,3.6-2.88,16.32,16.32,0,0,1,6-1.08,14.58,14.58,0,0,1,5.52,1,6.9,6.9,0,0,1,3.6,2.94,2,2,0,0,1,.24,1.08,7.49,7.49,0,0,1-1.68,3.72q-1.68,2.28-1,3a1.38,1.38,0,0,0,1,.48,2,2,0,0,0,1.2-.72,11.52,11.52,0,0,1,3.72-3.06,8.62,8.62,0,0,1,3.84-1,4.14,4.14,0,0,1,3.06,1.14,4.47,4.47,0,0,1,1.14,3.3q0,3.84-3.48,9.12-2.64,4.2-6,4.2A5.58,5.58,0,0,1,307.56,41.4Z"/><path class="cls-1" d="M393.47,45a6.36,6.36,0,0,1,1.08,3.24,2.5,2.5,0,0,1-.89,2,4.26,4.26,0,0,1-2.82.78,19.84,19.84,0,0,1-2.29-.24h-.23a1.34,1.34,0,0,0-.9.36A1,1,0,0,0,387,52a1.09,1.09,0,0,0,.71,1A6.27,6.27,0,0,1,392,59.28a12.07,12.07,0,0,1-2.7,7.38q-2.7,3.54-5.82,3.54a5.26,5.26,0,0,1-3.24-1.32c-.32-.24-.53-.32-.6-.24s-.05.28.11.6a5.35,5.35,0,0,1,.73,1.92,3.54,3.54,0,0,1-.84,3.42A4.46,4.46,0,0,1,376.32,76q-3.85,0-6.48-4.2c-.24-.4-.53-.54-.84-.42s-.41.38-.24.78a6.36,6.36,0,0,0,.78,1.56,12.2,12.2,0,0,1,1,1.92,3.13,3.13,0,0,1,.05,1.8c-.16.72-.84,1.28-2,1.68a12.48,12.48,0,0,1-4,.6,10.4,10.4,0,0,1-4-.72,3.23,3.23,0,0,1-2.1-2,2.51,2.51,0,0,1,.06-1.68,7.84,7.84,0,0,1,.78-1.44,8.88,8.88,0,0,0,.72-1.32c.15-.4.1-.64-.18-.72a.62.62,0,0,0-.66.12,8.11,8.11,0,0,1-6.72,3.24,8.38,8.38,0,0,1-5-1.56A6.76,6.76,0,0,1,345.29,71a7.15,7.15,0,0,1-.77-3.24,5.5,5.5,0,0,1,2.76-5q.11,0,0-.06a2.2,2.2,0,0,0-.54-.12,9.77,9.77,0,0,0-1.27-.06h-8.15c-.09,0-.12,0-.12.06s0,.06.12.06a7.81,7.81,0,0,1,2.88,1.14A2,2,0,0,1,341,65.4a12.21,12.21,0,0,1-.78,2.82,12.61,12.61,0,0,0-.79,4.26q0,5.4,5.41,11.88a6.89,6.89,0,0,1,1.56,4.44,8.87,8.87,0,0,1-2.4,6.12,8,8,0,0,1-6.12,2.76,8.11,8.11,0,0,1-6.24-2.76,8.49,8.49,0,0,1-2.4-5.88,7.44,7.44,0,0,1,1.56-4.68q4.92-6.84,4.92-12.72a11.77,11.77,0,0,0-1.5-6.48,23.1,23.1,0,0,1-1.63-2.64,3.88,3.88,0,0,0,1.08.24,2.28,2.28,0,0,0,1.45-.48q1.54-.84,1.55-4.56a15.58,15.58,0,0,0-.83-5c-.57-1.64-1.28-2.66-2.17-3.06a2.23,2.23,0,0,0-1.19-.24,4.43,4.43,0,0,0-2.4.6c1-3.52,2.08-6.6,3.12-9.24Q335,36,335,34.44a2,2,0,0,0-1.44-2.16,2.56,2.56,0,0,0-1-.12h-.35a1.93,1.93,0,0,1-1.44-.6,7.33,7.33,0,0,1-2.16-5.4,8,8,0,0,1,2.4-5.88,8.27,8.27,0,0,1,6.12-2.4,8.77,8.77,0,0,1,6.48,2.52,7.29,7.29,0,0,1,2,5.4,9.39,9.39,0,0,1-1.13,4.5,7.57,7.57,0,0,1-3.3,3.18c-.49.32-.54.54-.18.66a7.24,7.24,0,0,0,2,.18,22.44,22.44,0,0,0,4.38-.42q2.09-.42,1.62-1a4.77,4.77,0,0,1-1.32-3.36,3.49,3.49,0,0,1,3.6-3.6,5.94,5.94,0,0,1,4.08,1.8,1.19,1.19,0,0,0,1.08.48q.47-.12.24-.72t-1.08-1.74a4.6,4.6,0,0,1-.84-2.58,4.13,4.13,0,0,1,.48-1.92,5.12,5.12,0,0,1,3.36-2.58,17.66,17.66,0,0,1,5.76-.9,15.83,15.83,0,0,1,5.34.84,4.86,4.86,0,0,1,3.06,2.52,3.44,3.44,0,0,1,.36,1.56,6.24,6.24,0,0,1-1.26,3.42c-.84,1.24-1.23,1.94-1.15,2.1.49.48,1.18.22,2.11-.78a13.45,13.45,0,0,1,3.42-2.64c1.36-.76,3.39-1,6.12-.78a6.27,6.27,0,0,1,4,1.92A5.66,5.66,0,0,1,388.08,30a7.74,7.74,0,0,1-2.4,5.4c-.56.64-.47,1.4.29,2.28a41.52,41.52,0,0,0,4.5,4.08A11.28,11.28,0,0,1,393.47,45Zm-10.55-8a3,3,0,0,0-.79.36,22.52,22.52,0,0,1-2.09,1,10.57,10.57,0,0,1-3.72.72,6.43,6.43,0,0,1-4.38-1.5A4.54,4.54,0,0,1,370.2,34a5.94,5.94,0,0,1,.24-1.32,2.52,2.52,0,0,0-1.26-3.18,10.13,10.13,0,0,0-4.86-1,15.91,15.91,0,0,0-5,.72q-2.16.72-1.68,1.8a12.06,12.06,0,0,1,1.19,4.44A2.52,2.52,0,0,1,356.88,38a6.75,6.75,0,0,1-1.44.24,13.1,13.1,0,0,1-2.76-.48,13.35,13.35,0,0,0-3-.48,3.81,3.81,0,0,0-2.64,1,1.8,1.8,0,0,0-.6,1.32q0,1.68,2.52,3.84a4.31,4.31,0,0,0-1-.24,12.62,12.62,0,0,0-1.86-.12Q342,43.08,342,46a2.24,2.24,0,0,0,1.44,2.28,12.72,12.72,0,0,0,3,.84,18.55,18.55,0,0,0,1.92.24,11.77,11.77,0,0,0-3.24,2.94,5.68,5.68,0,0,0-1.44,3.3,2,2,0,0,0,.6,1.44,4.46,4.46,0,0,0,3.48,1.2,13.25,13.25,0,0,0,4.2-.72,5.24,5.24,0,0,1-.6,1.26,2.63,2.63,0,0,0-.48,1.26q0,1.68,4.44,1.2a4.41,4.41,0,0,1,3.36,1.08,6.13,6.13,0,0,1,1.79,2.94,6.78,6.78,0,0,1,.24,3.06,2,2,0,0,0,.73,2.28,4.85,4.85,0,0,0,5.27.12,2.19,2.19,0,0,0,1.08-1.92,10.57,10.57,0,0,0-.11-1.38,9.92,9.92,0,0,1-.13-1.5,3,3,0,0,1,.91-2.22,3.14,3.14,0,0,1,2.33-.9c2.48,0,5,1.6,7.68,4.8l.37.36c.15.16.28.18.36.06s0-.26-.12-.42Q376.2,64,376.2,61a6.65,6.65,0,0,1,2.7-5.4,13.27,13.27,0,0,1,5.46-2.76,2.34,2.34,0,0,0,1.19-.54,1.11,1.11,0,0,0,.49-.78c0-.56-.41-1-1.2-1.32q-6.37-3-6.37-6.6c0-1.76,1.21-3.64,3.61-5.64a5.52,5.52,0,0,0,.84-.6c.15-.16.2-.28.12-.36Z"/><path class="cls-1" d="M463.32,41.4a6,6,0,0,1,3.12.72,6.26,6.26,0,0,1,2.76,3.3,13.63,13.63,0,0,1,1,5.22,14.09,14.09,0,0,1-1,5.28,6.26,6.26,0,0,1-2.76,3.36,4.34,4.34,0,0,1-2.52.6,11.85,11.85,0,0,1-3.6-.72l-.12.12a7,7,0,0,1,2.16,5.16,5.79,5.79,0,0,1-1.8,4.44,5.19,5.19,0,0,1-3.84,1.44,7.64,7.64,0,0,1-5-1.92l-.24.12a5.8,5.8,0,0,1,1.2,3.6,5,5,0,0,1-1.2,3.48A4.3,4.3,0,0,1,448,77a7.73,7.73,0,0,1-5.28-2.16.11.11,0,0,0-.12.12,2.72,2.72,0,0,1,.12,1,6.31,6.31,0,0,1-.12,1.32q-.26,1.44-2.28,2.28a12.21,12.21,0,0,1-4.68.84,11.52,11.52,0,0,1-4.26-.78,4.67,4.67,0,0,1-2.7-2.34,2.89,2.89,0,0,0-.3-.72,3.06,3.06,0,0,1-.3-1.44,4.24,4.24,0,0,1,.36-1.68h-.12a6.9,6.9,0,0,1-4,1.44,3.82,3.82,0,0,1-3.48-1.68,3,3,0,0,1-.6-2.16,9,9,0,0,1,.6-3.24l-.12-.12a8.45,8.45,0,0,1-2.82,1.86,8.71,8.71,0,0,1-3.3.66,5.35,5.35,0,0,1-4-1.44,5.32,5.32,0,0,1-1.08-3.48,9.63,9.63,0,0,1,.9-4,6.78,6.78,0,0,1,2.34-2.94q-.14-.36-.24-.24a7.9,7.9,0,0,1-3.48,1,5.11,5.11,0,0,1-2.28-.6,5.55,5.55,0,0,1-2.58-3.06,13.15,13.15,0,0,1-.9-5,12.86,12.86,0,0,1,1-5A6.23,6.23,0,0,1,407,42.12a5.56,5.56,0,0,1,2.52-.6,9.06,9.06,0,0,1,2.88.48v-.24a8.18,8.18,0,0,1-3-6.36,7.12,7.12,0,0,1,.66-3,5,5,0,0,1,1.74-2.16,5.94,5.94,0,0,1,6.48,0c.07.08.18.06.3-.06a.33.33,0,0,0,.06-.42,10.21,10.21,0,0,1-.48-3.24,4.54,4.54,0,0,1,.72-2.76,3.59,3.59,0,0,1,3.24-1.44,9.09,9.09,0,0,1,3.84,1,12.69,12.69,0,0,1,3.6,2.52q0,.24.48-.12a8.36,8.36,0,0,1-1.44-4.08,3.48,3.48,0,0,1,.24-1.08,4.51,4.51,0,0,1,2.7-2.28,12.63,12.63,0,0,1,4.74-.84,12.46,12.46,0,0,1,4.08.66,6.17,6.17,0,0,1,2.88,1.86,3.42,3.42,0,0,1,.6,2,6,6,0,0,1-1.32,3.84c.15.16.28.2.36.12a9.67,9.67,0,0,1,7.32-3.6,4.56,4.56,0,0,1,3.36,1.2,3.84,3.84,0,0,1,1,2.4,5.19,5.19,0,0,1-.84,2.52c-.09.08-.06.16.06.24s.22.08.3,0a7.32,7.32,0,0,1,4.56-1.56,4.23,4.23,0,0,1,2.4.72,5.37,5.37,0,0,1,2,2.58,10.11,10.11,0,0,1,.72,3.9,9.86,9.86,0,0,1-3,7.2v.24A8,8,0,0,1,463.32,41.4ZM457.44,56a7.62,7.62,0,0,0,1.32-4.8,21.43,21.43,0,0,0-1.8-7.92,7.56,7.56,0,0,1-2.4.36,6.26,6.26,0,0,1-3.72-1.2A3.75,3.75,0,0,1,450,39.6a16.43,16.43,0,0,1,.72-4.44,18.87,18.87,0,0,1,2-4.68q.12,0,.06-.06a.26.26,0,0,0-.18-.06,10.16,10.16,0,0,1-3.54,2.94,9.13,9.13,0,0,1-4.26,1.26q-3.24,0-3.24-3.6a7.47,7.47,0,0,1,.12-1.56c.07-.48-.44-.88-1.56-1.2a16.63,16.63,0,0,0-7.68-.06q-1.56.42-1.68,1.26a2.52,2.52,0,0,1,.06,1.86,3.45,3.45,0,0,1-1.62,2.22,5.47,5.47,0,0,1-3,.84,8.15,8.15,0,0,1-5.76-2.76.19.19,0,0,0-.18.12.19.19,0,0,1-.18.12,19.22,19.22,0,0,1,2.4,4.26,11.12,11.12,0,0,1,1,4.14,3.12,3.12,0,0,1-1,2.64,4.55,4.55,0,0,1-3.12,1,9,9,0,0,1-3.24-.6,14.57,14.57,0,0,0-1.8,7.2,9.56,9.56,0,0,0,1,4.62q1,1.74,2.4,1.38a12.71,12.71,0,0,1,3.24-.48q3.48,0,3.48,3.12a10.17,10.17,0,0,1-.9,3.84,14,14,0,0,1-2,3.48q-.48.6.42.24A14,14,0,0,0,424.56,65q1.68-1.2,3.6-2.76a9.07,9.07,0,0,0,1.2,4.92,4.55,4.55,0,0,0,2.52,2.16,10.24,10.24,0,0,0,3.84.72,10.71,10.71,0,0,0,3.9-.72,5.82,5.82,0,0,0,2.82-2.16,9.73,9.73,0,0,0,1-2.22A22.26,22.26,0,0,0,444,62.4q.83.72,2.52,1.92c2.47,2.08,3.92,3.12,4.32,3.12a.21.21,0,0,0,.24-.24,3.5,3.5,0,0,0-.72-1.56,16,16,0,0,1-1.44-2.88,8.84,8.84,0,0,1-.72-3.24c0-1.92,1-2.88,3.12-2.88a14,14,0,0,1,3.72.72C455.76,57.6,456.55,57.16,457.44,56Z"/><path class="cls-1" d="M520.68,25a6.23,6.23,0,0,1-1.86,4.44,5.92,5.92,0,0,1-4.38,1.92,7.56,7.56,0,0,1-4.2-1.44q-3.72-2.76-4.8-2.76a1.26,1.26,0,0,0-.84.54,1.54,1.54,0,0,1-1.2.54,7.35,7.35,0,0,1-2.52-.6l-.6-.12a.11.11,0,0,0-.12.12c0,.08.19.3.6.66l.71.66a4.25,4.25,0,0,1,1.45,3.48,12.22,12.22,0,0,1-.66,3.6c-.45,1.36-.9,2.68-1.38,4a21.84,21.84,0,0,0-1.44,5.28q0,1.68,1.8,1.68a7.15,7.15,0,0,0,1.92-.36c-2.09,5.6-3.12,9.64-3.12,12.12a6.69,6.69,0,0,0,.72,3.24,15.55,15.55,0,0,0,1.79,2.58c.73.84,1.21,1.42,1.45,1.74a10.21,10.21,0,0,1,1.55,2.58,8.18,8.18,0,0,1,.73,3.42A8.55,8.55,0,0,1,504,77.88a8,8,0,0,1-6.37,2.64,9.42,9.42,0,0,1-3.47-.66A7.16,7.16,0,0,1,491.4,78a8.5,8.5,0,0,1-2.28-5.64A8.63,8.63,0,0,1,491.76,66a31.33,31.33,0,0,0,3.06-3.6,5.72,5.72,0,0,0,.78-3.12,18.58,18.58,0,0,0-.78-4.62c-.53-1.88-1.38-4.58-2.58-8.1a6.85,6.85,0,0,0,2.28.48,1.38,1.38,0,0,0,1.56-1.56A18.72,18.72,0,0,0,494.52,40q-2.16-5.28-2.16-7.8a3.79,3.79,0,0,1,.72-2.52,8.29,8.29,0,0,1,1.26-1.26q.78-.66.78-.78a1.84,1.84,0,0,0-1,0q-.36,0-4.92,1.32a27.76,27.76,0,0,0-2.88,1,14.72,14.72,0,0,1-5.4,1.44,6,6,0,0,1-2.76-.6,4.94,4.94,0,0,1-2.46-2.1,6.11,6.11,0,0,1-.78-3.06,7,7,0,0,1,1.8-4.8,6.06,6.06,0,0,1,4.79-2A5.16,5.16,0,0,1,485,19.86,15.43,15.43,0,0,1,487.68,23c.39.56.78,1.06,1.14,1.5a1.44,1.44,0,0,0,1,.66,1.77,1.77,0,0,0,1.2-.6,1.46,1.46,0,0,1,1.08-.48,5.71,5.71,0,0,1,2.28.84,6,6,0,0,0,2,.84l-1.56-2.16a2.56,2.56,0,0,1-.36-1.56,13.92,13.92,0,0,1,.72-3.6,12,12,0,0,0,.72-3,1.08,1.08,0,0,0-1.08-1.2,5.44,5.44,0,0,0-1.56.3,2,2,0,0,1-1.44.06,3.61,3.61,0,0,1-2-2,8.51,8.51,0,0,1-.72-3.6,8.56,8.56,0,0,1,2.51-6.48,8.21,8.21,0,0,1,6-2.52,8.6,8.6,0,0,1,8.65,8.76,8.48,8.48,0,0,1-1,4.2q-1,1.8-2.22,1.8a6.12,6.12,0,0,1-1.68-.18,5.92,5.92,0,0,1-.84-.3c-.89-.24-1.32,0-1.32.84a4.61,4.61,0,0,0,.24,1.2c.16.56.27,1,.35,1.44a15,15,0,0,1,1,4.2,3.29,3.29,0,0,1-.6,1.92,9.69,9.69,0,0,1-.9,1,3.56,3.56,0,0,0-.66.78,3.83,3.83,0,0,0,2.52-.48q1.44-.72,4.08-2.4a50.76,50.76,0,0,1,5.22-3,9.67,9.67,0,0,1,4.26-1.08,5.41,5.41,0,0,1,4,1.68A6.32,6.32,0,0,1,520.68,25Z"/><path class="cls-1" d="M584.27,56.64a11.76,11.76,0,0,1,1.8,6.36q0,3.84-2.16,4.92a8.3,8.3,0,0,1-3.72,1,11,11,0,0,1-2.46-.36,11,11,0,0,0-2-.36,2.25,2.25,0,0,0-2.34,1.74,8.82,8.82,0,0,0-.42,3.3,10.37,10.37,0,0,1-1.68-1,13.69,13.69,0,0,0-2.16-1.26,4.24,4.24,0,0,0-1.68-.36,1.69,1.69,0,0,0-1.74,1,2.05,2.05,0,0,0-.06,1.74,5.82,5.82,0,0,1,.54,1,4,4,0,0,1,.42,1.8,3.19,3.19,0,0,1-1.32,2.52Q563.51,80,559,80a14.21,14.21,0,0,1-5.52-1q-2.28-1-2.28-2.88a4.87,4.87,0,0,1,1.2-2.88,4.77,4.77,0,0,0,1.2-2.76q0-1.8-2.28-1.8a7.6,7.6,0,0,0-4.2,1.56A10.48,10.48,0,0,1,541,72.24a9.63,9.63,0,0,1-3.6-.72,4.63,4.63,0,0,1-3-4.56,14.08,14.08,0,0,1,2.28-7.08l-.24-.24a8.21,8.21,0,0,1-3.24.72,5.47,5.47,0,0,1-2.64-.72,6.73,6.73,0,0,1-3.06-3.6,15.45,15.45,0,0,1,0-11,6.31,6.31,0,0,1,2.94-3.48,8.3,8.3,0,0,1,3.72-1,4.2,4.2,0,0,1,1.32.24l.12-.12a7.63,7.63,0,0,1-1.68-4.8,4.26,4.26,0,0,1,1.56-3.6,3.63,3.63,0,0,1,2.16-.6,5.48,5.48,0,0,1,1.62.24,8.23,8.23,0,0,1,1,.36l.24-.12q-2.52-2.88-2.52-4.68a1.63,1.63,0,0,1,.48-1.2A4.57,4.57,0,0,1,542.15,25a17.62,17.62,0,0,1,7.2,1.8h.12a9.58,9.58,0,0,1-.36-2.52,4.32,4.32,0,0,1,.48-2.16A6.31,6.31,0,0,1,553,19.14a14.13,14.13,0,0,1,5.46-1,11.72,11.72,0,0,1,6.18,1.56A4.82,4.82,0,0,1,567.23,24a11.38,11.38,0,0,1-.36,2.76h.24a11.17,11.17,0,0,1,5.76-2q2.64,0,3.24,2.88a3.48,3.48,0,0,0,.36,1.14.7.7,0,0,0,.6.42h.36a5.7,5.7,0,0,1,1.32-.12,5.45,5.45,0,0,1,4.2,2,6.72,6.72,0,0,1,1.8,4.56,5.08,5.08,0,0,1-3.12,4.8,4.66,4.66,0,0,1-2,.36,8.93,8.93,0,0,1-3.24-.48,6.1,6.1,0,0,1,1.92,4.44,5.48,5.48,0,0,1-1.92,4.32,5.71,5.71,0,0,1-3.24,1,9.51,9.51,0,0,1-4.08-1l-.12.12a6.42,6.42,0,0,1,.48,2.4,2.62,2.62,0,0,1-.48,1.68,5,5,0,0,1-2.58,2.1,10.29,10.29,0,0,1-4,.78,9.08,9.08,0,0,1-5.1-1.38,4.62,4.62,0,0,1-2.1-4.14,11,11,0,0,1,.6-3.48l-.12-.12a12.33,12.33,0,0,1-4.38-.54,6.88,6.88,0,0,1-5-6.3,4.83,4.83,0,0,1,1.86-3.84,6.44,6.44,0,0,1,4.26-1.56A5.23,5.23,0,0,1,556.67,37a3.87,3.87,0,0,1,.72,2.16,7.05,7.05,0,0,1-.48,2.1,7.05,7.05,0,0,0-.48,2.1,3.57,3.57,0,0,0,.48,1.8,3.69,3.69,0,0,0,2,1.62,8.33,8.33,0,0,0,3.06.54,7.92,7.92,0,0,0,3.36-.72,4.77,4.77,0,0,0,2.28-2,2.25,2.25,0,0,0,.24-1.2,9.24,9.24,0,0,0-.42-2.22,9.57,9.57,0,0,1-.42-2Q567,38,568.55,38a8.72,8.72,0,0,1,2.52.36,4.7,4.7,0,0,0,1.56-3.6,4.21,4.21,0,0,0-1.56-3.36,4,4,0,0,0-2.52-1,6.46,6.46,0,0,0-2,.36,27.79,27.79,0,0,1-6,.72,23.28,23.28,0,0,1-4.56-.48,32.85,32.85,0,0,0-5.88-.72q-2.64,0-3.24,1.08a13.51,13.51,0,0,0-.66,2,6.24,6.24,0,0,1-2.1,2.94A4.77,4.77,0,0,1,541,37.44a5,5,0,0,1-4.2-2.28q-.48-.48-.6-.3t.18,1a12.88,12.88,0,0,0,1.14,2.1,37.29,37.29,0,0,0,2.64,3.6,34.65,34.65,0,0,1,2.7,3.6,5.23,5.23,0,0,1,.9,2.76A3.19,3.19,0,0,1,543,49.8a5.87,5.87,0,0,1-2.1,1.62q-1.5.78-3.06,1.5a33,33,0,0,0-4.08,2.22q-1.32.9-.84,2a1.93,1.93,0,0,0,1.92,1,19.64,19.64,0,0,0,4.8-1.2q.72-.24,2.94-.84a15.21,15.21,0,0,1,3.9-.6,5.37,5.37,0,0,1,2.64.6,4,4,0,0,1,2.28,3.84q0,2.88-2.52,7,0,.24.12.24h.24a7.7,7.7,0,0,1,2.82-2.94,6.33,6.33,0,0,1,3.06-.9q1.2,0,1.14.3a5.29,5.29,0,0,1-.78,1.32,5.78,5.78,0,0,0-1,2.22q-.24,1.2,1.32,1.92a9.14,9.14,0,0,0,3.84.72,8,8,0,0,0,3.36-.66,2.05,2.05,0,0,0,1.44-1.86,3.58,3.58,0,0,0-.18-1.14,3.58,3.58,0,0,1-.18-1.14,2,2,0,0,1,1-1.8,3.89,3.89,0,0,1,2.4-.72A10.37,10.37,0,0,1,574,65.16l.36-.36a11.08,11.08,0,0,1-1.56-5.16,3.12,3.12,0,0,1,.12-1A7.34,7.34,0,0,1,575,54.6a5,5,0,0,1,3.42-1.32,6.72,6.72,0,0,1,3.3.9A6.93,6.93,0,0,1,584.27,56.64Z"/><path class="cls-1" d="M649.31,76.2A9.4,9.4,0,0,1,644.75,79a20,20,0,0,1-6.24,1,13.11,13.11,0,0,1-4.38-.66,5.06,5.06,0,0,1-2.7-2,7.48,7.48,0,0,1-.84-3.6,5,5,0,0,1,.36-2.16,19.51,19.51,0,0,1-2.28-9,12.19,12.19,0,0,1,.6-4.08A4,4,0,0,1,631,56.28a3.8,3.8,0,0,1,1.92-.48,8.34,8.34,0,0,1,3,.6l.12-.12a4.93,4.93,0,0,1-3.24-4.8,10.13,10.13,0,0,1,.6-3.3,35.22,35.22,0,0,1,1.8-4.14,15,15,0,0,0,1.08-2.4q.36-1.08,0-1.44a2.16,2.16,0,0,0-1.32-.36,7.45,7.45,0,0,0-1.44.12l-1.08.24a10.18,10.18,0,0,1-2.52.48,2.52,2.52,0,0,1-1.32-.36,3.12,3.12,0,0,1-1-2.64A9.89,9.89,0,0,1,629,32.76a12.16,12.16,0,0,0-4.38-2.46,16.39,16.39,0,0,0-5-.78,12.18,12.18,0,0,0-5.52,1.2l-1.2.72q-.84.6-2.52,2A11.63,11.63,0,0,0,608,37.56q-1,2.64-.66,3.36a6.56,6.56,0,0,1,1.44-.24,7.22,7.22,0,0,1,1.2.24,10.15,10.15,0,0,1,4.8,4.38,12.2,12.2,0,0,1,2,6.42,5.19,5.19,0,0,1-1.44,3.84,6.91,6.91,0,0,1-4.92,1.8q-1.08,0-2.28-.12a3.88,3.88,0,0,0-1.44,0q-.72.48-1.14,2.76a31,31,0,0,0-.42,5.52,38.53,38.53,0,0,0,.72,8.16l.12.12a25.8,25.8,0,0,0,1.2-2.58A14.69,14.69,0,0,1,610,67.14a7.26,7.26,0,0,1,5.64-2.1,7.1,7.1,0,0,1,5.16,1.86,6,6,0,0,1,1.92,4.5,7.5,7.5,0,0,1-3,5.88,10.14,10.14,0,0,1-4,1.86,24.08,24.08,0,0,1-12.12-.24,8.69,8.69,0,0,1-4.44-2.7,5.76,5.76,0,0,1-1.44-3.6,2.58,2.58,0,0,1,1.2-2.4,3.2,3.2,0,0,1,1.44-.36,9.84,9.84,0,0,1,2,.36v-.36a6.44,6.44,0,0,0-3.24-3.12,12.57,12.57,0,0,1-2.22-1.8,3.4,3.4,0,0,1-.78-2.4,3.84,3.84,0,0,1,2.4-3.6,13.89,13.89,0,0,1,5.76-1.32l.12-.24q-4.2-1.8-4.2-5.64a9.42,9.42,0,0,1,.78-3.66,45.69,45.69,0,0,1,2.1-4.26,8.15,8.15,0,0,0,1.2-2.88q0-.84-1-1.14a7.4,7.4,0,0,0-2.1-.3h-.12q.36-.48,1-1.44a3.21,3.21,0,0,0,.6-1.56.32.32,0,0,0-.36-.36,8.06,8.06,0,0,1-5-1.92,5.76,5.76,0,0,1-2.46-4.68,7.11,7.11,0,0,1,2.4-5,5.5,5.5,0,0,1,4-1.8q2.52,0,6.48,2.4.72.48,2.64,1.86a5.93,5.93,0,0,0,3.12,1.38,1.3,1.3,0,0,0,1-.36,2.79,2.79,0,0,0,.48-.72,1.92,1.92,0,0,0,.48-1.2,3.64,3.64,0,0,0-.42-1.38,4.11,4.11,0,0,1-.42-1.74q0-2.16,2.64-3.54A13,13,0,0,1,623.27,18a13.75,13.75,0,0,1,5,.9,7.21,7.21,0,0,1,3.54,2.7,2.07,2.07,0,0,1,.48,1.32A5.5,5.5,0,0,1,631,25.68a4.2,4.2,0,0,0-1.2,2.16,2.05,2.05,0,0,0,.36,1,1.14,1.14,0,0,0,1,.48,1.3,1.3,0,0,0,1-.36,14.11,14.11,0,0,1,3.48-2.16,9.51,9.51,0,0,1,3.84-.84,4.86,4.86,0,0,1,3.6,1.32,5,5,0,0,1,1.8,4q0,4.68-7,7.92-.48.24-.24,1a1.12,1.12,0,0,0,.84.84,8.39,8.39,0,0,1,2-.36,4,4,0,0,1,1.8.36A9.94,9.94,0,0,1,646.61,45a11.06,11.06,0,0,1,1.74,5.76,6,6,0,0,1-1.68,4.44,5.17,5.17,0,0,1-4,1.68,11.06,11.06,0,0,1-2-.18,9.79,9.79,0,0,0-1.8-.18,2.32,2.32,0,0,0-1.2.36q-1.32,1-2.46,5a29.38,29.38,0,0,0-1.14,7.92,14,14,0,0,0,.36,3.36q0,.12.06.12s.06,0,.06-.12a13.65,13.65,0,0,1,3.24-5.46,8.57,8.57,0,0,1,6.6-2.58,7,7,0,0,1,5,1.74,5.7,5.7,0,0,1,1.8,4.26A7.64,7.64,0,0,1,649.31,76.2Z"/><path class="cls-1" d="M703.67,25a6.19,6.19,0,0,1-1.86,4.44,5.9,5.9,0,0,1-4.38,1.92,7.58,7.58,0,0,1-4.2-1.44q-3.72-2.76-4.8-2.76a1.28,1.28,0,0,0-.84.54,1.54,1.54,0,0,1-1.2.54,7.46,7.46,0,0,1-2.52-.6l-.6-.12a.11.11,0,0,0-.12.12q0,.12.6.66l.72.66a4.27,4.27,0,0,1,1.44,3.48,11.9,11.9,0,0,1-.66,3.6q-.66,2-1.38,4a21.84,21.84,0,0,0-1.44,5.28q0,1.68,1.8,1.68a7.09,7.09,0,0,0,1.92-.36Q683,55,683,58.68a6.69,6.69,0,0,0,.72,3.24,15,15,0,0,0,1.8,2.58q1.08,1.26,1.44,1.74a10.22,10.22,0,0,1,1.56,2.58,8.33,8.33,0,0,1,.72,3.42A8.5,8.5,0,0,1,687,77.88a8,8,0,0,1-6.36,2.64,9.44,9.44,0,0,1-3.48-.66A7.16,7.16,0,0,1,674.39,78a8.5,8.5,0,0,1-2.28-5.64A8.67,8.67,0,0,1,674.75,66a29.35,29.35,0,0,0,3.06-3.6,5.64,5.64,0,0,0,.78-3.12,18.12,18.12,0,0,0-.78-4.62q-.78-2.82-2.58-8.1a6.85,6.85,0,0,0,2.28.48,1.38,1.38,0,0,0,1.56-1.56A18.41,18.41,0,0,0,677.51,40q-2.16-5.28-2.16-7.8a3.79,3.79,0,0,1,.72-2.52,9.33,9.33,0,0,1,1.26-1.26q.78-.66.78-.78a1.83,1.83,0,0,0-1,0q-.36,0-4.92,1.32a29.45,29.45,0,0,0-2.88,1,14.67,14.67,0,0,1-5.4,1.44,6.09,6.09,0,0,1-2.76-.6,4.94,4.94,0,0,1-2.46-2.1,6.11,6.11,0,0,1-.78-3.06,7,7,0,0,1,1.8-4.8,6.08,6.08,0,0,1,4.8-2A5.14,5.14,0,0,1,668,19.86,14.83,14.83,0,0,1,670.67,23q.6.84,1.14,1.5a1.44,1.44,0,0,0,1,.66,1.73,1.73,0,0,0,1.2-.6,1.49,1.49,0,0,1,1.08-.48,5.71,5.71,0,0,1,2.28.84,6.12,6.12,0,0,0,2,.84l-1.56-2.16a2.64,2.64,0,0,1-.36-1.56,13.92,13.92,0,0,1,.72-3.6,11.52,11.52,0,0,0,.72-3,1.08,1.08,0,0,0-1.08-1.2,5.5,5.5,0,0,0-1.56.3,2,2,0,0,1-1.44.06,3.64,3.64,0,0,1-2-2,8.51,8.51,0,0,1-.72-3.6,8.53,8.53,0,0,1,2.52-6.48,8.19,8.19,0,0,1,6-2.52,8.6,8.6,0,0,1,8.64,8.76,8.37,8.37,0,0,1-1,4.2q-1,1.8-2.22,1.8a6.12,6.12,0,0,1-1.68-.18,5.92,5.92,0,0,1-.84-.3q-1.32-.36-1.32.84a5.08,5.08,0,0,0,.24,1.2q.24.84.36,1.44a15.22,15.22,0,0,1,1,4.2,3.22,3.22,0,0,1-.6,1.92,9.69,9.69,0,0,1-.9,1,3.89,3.89,0,0,0-.66.78,3.83,3.83,0,0,0,2.52-.48q1.44-.72,4.08-2.4a53,53,0,0,1,5.22-3,9.73,9.73,0,0,1,4.26-1.08,5.42,5.42,0,0,1,4,1.68A6.31,6.31,0,0,1,703.67,25Z"/></g></g></svg>